<svg width="10" height="6" viewBox="0 0 10 6" fill="none" xmlns="http://www.w3.org/2000/svg">
<path d="M9.16671 0.641665C9.01057 0.486456 8.79936 0.399338 8.57921 0.399338C8.35905 0.399338 8.14784 0.486456 7.9917 0.641665L5.00004 3.59166L2.05004 0.641665C1.8939 0.486456 1.68269 0.399338 1.46254 0.399338C1.24238 0.399338 1.03117 0.486456 0.875039 0.641665C0.796932 0.719134 0.734936 0.811301 0.692629 0.912851C0.650322 1.0144 0.62854 1.12332 0.62854 1.23333C0.62854 1.34334 0.650322 1.45226 0.692629 1.55381C0.734936 1.65536 0.796932 1.74753 0.875039 1.825L4.40837 5.35833C4.48584 5.43644 4.57801 5.49843 4.67956 5.54074C4.78111 5.58305 4.89003 5.60483 5.00004 5.60483C5.11005 5.60483 5.21897 5.58305 5.32052 5.54074C5.42207 5.49843 5.51424 5.43644 5.5917 5.35833L9.16671 1.825C9.24481 1.74753 9.30681 1.65536 9.34911 1.55381C9.39142 1.45226 9.4132 1.34334 9.4132 1.23333C9.4132 1.12332 9.39142 1.0144 9.34911 0.912851C9.30681 0.811301 9.24481 0.719134 9.16671 0.641665Z" fill="#4B5567"/>
</svg>
